<?xml version="1.0" encoding="utf-8" standalone="no"?>
<!DOCTYPE svg PUBLIC "-//W3C//DTD SVG 1.1//EN"
  "http://www.w3.org/Graphics/SVG/1.1/DTD/svg11.dtd">
<svg xmlns:xlink="http://www.w3.org/1999/xlink" width="648pt" height="432pt" viewBox="0 0 648 432" xmlns="http://www.w3.org/2000/svg" version="1.1">
 <metadata>
  <rdf:RDF xmlns:dc="http://purl.org/dc/elements/1.1/" xmlns:cc="http://creativecommons.org/ns#" xmlns:rdf="http://www.w3.org/1999/02/22-rdf-syntax-ns#">
   <cc:Work>
    <dc:type rdf:resource="http://purl.org/dc/dcmitype/StillImage"/>
    <dc:date>2022-12-06T02:19:55.487096</dc:date>
    <dc:format>image/svg+xml</dc:format>
    <dc:creator>
     <cc:Agent>
      <dc:title>Matplotlib v3.5.1, https://matplotlib.org/</dc:title>
     </cc:Agent>
    </dc:creator>
   </cc:Work>
  </rdf:RDF>
 </metadata>
 <defs>
  <style type="text/css">*{stroke-linejoin: round; stroke-linecap: butt}</style>
 </defs>
 <g id="figure_1">
  <g id="patch_1">
   <path d="M 0 432 
L 648 432 
L 648 0 
L 0 0 
z
" style="fill: #ffffff"/>
  </g>
  <g id="axes_1">
   <g id="patch_2">
    <path d="M 32.4 188.509091 
L 297.490909 188.509091 
L 297.490909 21.6 
L 32.4 21.6 
z
" style="fill: #ffffff"/>
   </g>
   <g id="matplotlib.axis_1">
    <g id="xtick_1">
     <g id="line2d_1">
      <defs>
       <path id="mcd69610795" d="M 0 0 
L 0 3.5 
" style="stroke: #000000; stroke-width: 0.8"/>
      </defs>
      <g>
       <use xlink:href="#mcd69610795" x="44.449587" y="188.509091" style="stroke: #000000; stroke-width: 0.8"/>
      </g>
     </g>
     <g id="text_1">
      <!-- 0.0 -->
      <g transform="translate(36.498024 203.107528)scale(0.1 -0.1)">
       <defs>
        <path id="DejaVuSans-30" d="M 2034 4250 
Q 1547 4250 1301 3770 
Q 1056 3291 1056 2328 
Q 1056 1369 1301 889 
Q 1547 409 2034 409 
Q 2525 409 2770 889 
Q 3016 1369 3016 2328 
Q 3016 3291 2770 3770 
Q 2525 4250 2034 4250 
z
M 2034 4750 
Q 2819 4750 3233 4129 
Q 3647 3509 3647 2328 
Q 3647 1150 3233 529 
Q 2819 -91 2034 -91 
Q 1250 -91 836 529 
Q 422 1150 422 2328 
Q 422 3509 836 4129 
Q 1250 4750 2034 4750 
z
" transform="scale(0.015625)"/>
        <path id="DejaVuSans-2e" d="M 684 794 
L 1344 794 
L 1344 0 
L 684 0 
L 684 794 
z
" transform="scale(0.015625)"/>
       </defs>
       <use xlink:href="#DejaVuSans-30"/>
       <use xlink:href="#DejaVuSans-2e" x="63.623047"/>
       <use xlink:href="#DejaVuSans-30" x="95.410156"/>
      </g>
     </g>
    </g>
    <g id="xtick_2">
     <g id="line2d_2">
      <g>
       <use xlink:href="#mcd69610795" x="104.697521" y="188.509091" style="stroke: #000000; stroke-width: 0.8"/>
      </g>
     </g>
     <g id="text_2">
      <!-- 0.5 -->
      <g transform="translate(96.745958 203.107528)scale(0.1 -0.1)">
       <defs>
        <path id="DejaVuSans-35" d="M 691 4666 
L 3169 4666 
L 3169 4134 
L 1269 4134 
L 1269 2991 
Q 1406 3038 1543 3061 
Q 1681 3084 1819 3084 
Q 2600 3084 3056 2656 
Q 3513 2228 3513 1497 
Q 3513 744 3044 326 
Q 2575 -91 1722 -91 
Q 1428 -91 1123 -41 
Q 819 9 494 109 
L 494 744 
Q 775 591 1075 516 
Q 1375 441 1709 441 
Q 2250 441 2565 725 
Q 2881 1009 2881 1497 
Q 2881 1984 2565 2268 
Q 2250 2553 1709 2553 
Q 1456 2553 1204 2497 
Q 953 2441 691 2322 
L 691 4666 
z
" transform="scale(0.015625)"/>
       </defs>
       <use xlink:href="#DejaVuSans-30"/>
       <use xlink:href="#DejaVuSans-2e" x="63.623047"/>
       <use xlink:href="#DejaVuSans-35" x="95.410156"/>
      </g>
     </g>
    </g>
    <g id="xtick_3">
     <g id="line2d_3">
      <g>
       <use xlink:href="#mcd69610795" x="164.945455" y="188.509091" style="stroke: #000000; stroke-width: 0.8"/>
      </g>
     </g>
     <g id="text_3">
      <!-- 1.0 -->
      <g transform="translate(156.993892 203.107528)scale(0.1 -0.1)">
       <defs>
        <path id="DejaVuSans-31" d="M 794 531 
L 1825 531 
L 1825 4091 
L 703 3866 
L 703 4441 
L 1819 4666 
L 2450 4666 
L 2450 531 
L 3481 531 
L 3481 0 
L 794 0 
L 794 531 
z
" transform="scale(0.015625)"/>
       </defs>
       <use xlink:href="#DejaVuSans-31"/>
       <use xlink:href="#DejaVuSans-2e" x="63.623047"/>
       <use xlink:href="#DejaVuSans-30" x="95.410156"/>
      </g>
     </g>
    </g>
    <g id="xtick_4">
     <g id="line2d_4">
      <g>
       <use xlink:href="#mcd69610795" x="225.193388" y="188.509091" style="stroke: #000000; stroke-width: 0.8"/>
      </g>
     </g>
     <g id="text_4">
      <!-- 1.5 -->
      <g transform="translate(217.241826 203.107528)scale(0.1 -0.1)">
       <use xlink:href="#DejaVuSans-31"/>
       <use xlink:href="#DejaVuSans-2e" x="63.623047"/>
       <use xlink:href="#DejaVuSans-35" x="95.410156"/>
      </g>
     </g>
    </g>
    <g id="xtick_5">
     <g id="line2d_5">
      <g>
       <use xlink:href="#mcd69610795" x="285.441322" y="188.509091" style="stroke: #000000; stroke-width: 0.8"/>
      </g>
     </g>
     <g id="text_5">
      <!-- 2.0 -->
      <g transform="translate(277.48976 203.107528)scale(0.1 -0.1)">
       <defs>
        <path id="DejaVuSans-32" d="M 1228 531 
L 3431 531 
L 3431 0 
L 469 0 
L 469 531 
Q 828 903 1448 1529 
Q 2069 2156 2228 2338 
Q 2531 2678 2651 2914 
Q 2772 3150 2772 3378 
Q 2772 3750 2511 3984 
Q 2250 4219 1831 4219 
Q 1534 4219 1204 4116 
Q 875 4013 500 3803 
L 500 4441 
Q 881 4594 1212 4672 
Q 1544 4750 1819 4750 
Q 2544 4750 2975 4387 
Q 3406 4025 3406 3419 
Q 3406 3131 3298 2873 
Q 3191 2616 2906 2266 
Q 2828 2175 2409 1742 
Q 1991 1309 1228 531 
z
" transform="scale(0.015625)"/>
       </defs>
       <use xlink:href="#DejaVuSans-32"/>
       <use xlink:href="#DejaVuSans-2e" x="63.623047"/>
       <use xlink:href="#DejaVuSans-30" x="95.410156"/>
      </g>
     </g>
    </g>
   </g>
   <g id="matplotlib.axis_2">
    <g id="ytick_1">
     <g id="line2d_6">
      <defs>
       <path id="m0041c25edc" d="M 0 0 
L -3.5 0 
" style="stroke: #000000; stroke-width: 0.8"/>
      </defs>
      <g>
       <use xlink:href="#m0041c25edc" x="32.4" y="171.856838" style="stroke: #000000; stroke-width: 0.8"/>
      </g>
     </g>
     <g id="text_6">
      <!-- 0 -->
      <g transform="translate(19.0375 175.656056)scale(0.1 -0.1)">
       <use xlink:href="#DejaVuSans-30"/>
      </g>
     </g>
    </g>
    <g id="ytick_2">
     <g id="line2d_7">
      <g>
       <use xlink:href="#m0041c25edc" x="32.4" y="143.322825" style="stroke: #000000; stroke-width: 0.8"/>
      </g>
     </g>
     <g id="text_7">
      <!-- 1 -->
      <g transform="translate(19.0375 147.122044)scale(0.1 -0.1)">
       <use xlink:href="#DejaVuSans-31"/>
      </g>
     </g>
    </g>
    <g id="ytick_3">
     <g id="line2d_8">
      <g>
       <use xlink:href="#m0041c25edc" x="32.4" y="114.788813" style="stroke: #000000; stroke-width: 0.8"/>
      </g>
     </g>
     <g id="text_8">
      <!-- 2 -->
      <g transform="translate(19.0375 118.588032)scale(0.1 -0.1)">
       <use xlink:href="#DejaVuSans-32"/>
      </g>
     </g>
    </g>
    <g id="ytick_4">
     <g id="line2d_9">
      <g>
       <use xlink:href="#m0041c25edc" x="32.4" y="86.254801" style="stroke: #000000; stroke-width: 0.8"/>
      </g>
     </g>
     <g id="text_9">
      <!-- 3 -->
      <g transform="translate(19.0375 90.05402)scale(0.1 -0.1)">
       <defs>
        <path id="DejaVuSans-33" d="M 2597 2516 
Q 3050 2419 3304 2112 
Q 3559 1806 3559 1356 
Q 3559 666 3084 287 
Q 2609 -91 1734 -91 
Q 1441 -91 1130 -33 
Q 819 25 488 141 
L 488 750 
Q 750 597 1062 519 
Q 1375 441 1716 441 
Q 2309 441 2620 675 
Q 2931 909 2931 1356 
Q 2931 1769 2642 2001 
Q 2353 2234 1838 2234 
L 1294 2234 
L 1294 2753 
L 1863 2753 
Q 2328 2753 2575 2939 
Q 2822 3125 2822 3475 
Q 2822 3834 2567 4026 
Q 2313 4219 1838 4219 
Q 1578 4219 1281 4162 
Q 984 4106 628 3988 
L 628 4550 
Q 988 4650 1302 4700 
Q 1616 4750 1894 4750 
Q 2613 4750 3031 4423 
Q 3450 4097 3450 3541 
Q 3450 3153 3228 2886 
Q 3006 2619 2597 2516 
z
" transform="scale(0.015625)"/>
       </defs>
       <use xlink:href="#DejaVuSans-33"/>
      </g>
     </g>
    </g>
    <g id="ytick_5">
     <g id="line2d_10">
      <g>
       <use xlink:href="#m0041c25edc" x="32.4" y="57.720789" style="stroke: #000000; stroke-width: 0.8"/>
      </g>
     </g>
     <g id="text_10">
      <!-- 4 -->
      <g transform="translate(19.0375 61.520008)scale(0.1 -0.1)">
       <defs>
        <path id="DejaVuSans-34" d="M 2419 4116 
L 825 1625 
L 2419 1625 
L 2419 4116 
z
M 2253 4666 
L 3047 4666 
L 3047 1625 
L 3713 1625 
L 3713 1100 
L 3047 1100 
L 3047 0 
L 2419 0 
L 2419 1100 
L 313 1100 
L 313 1709 
L 2253 4666 
z
" transform="scale(0.015625)"/>
       </defs>
       <use xlink:href="#DejaVuSans-34"/>
      </g>
     </g>
    </g>
    <g id="ytick_6">
     <g id="line2d_11">
      <g>
       <use xlink:href="#m0041c25edc" x="32.4" y="29.186777" style="stroke: #000000; stroke-width: 0.8"/>
      </g>
     </g>
     <g id="text_11">
      <!-- 5 -->
      <g transform="translate(19.0375 32.985996)scale(0.1 -0.1)">
       <use xlink:href="#DejaVuSans-35"/>
      </g>
     </g>
    </g>
   </g>
   <g id="line2d_12">
    <path d="M 44.449587 29.186777 
L 45.660601 29.186777 
L 46.871614 34.070637 
L 48.082628 41.648817 
L 50.504656 59.911967 
L 52.926683 78.20502 
L 55.34871 94.543565 
L 57.770738 108.456298 
L 60.192765 120.041969 
L 62.614793 129.584418 
L 63.825807 133.689043 
L 66.247834 140.754642 
L 68.669862 146.52074 
L 71.091889 151.221421 
L 73.513917 155.051476 
L 75.935944 158.171284 
L 78.357972 160.712188 
L 80.779999 162.781452 
L 83.202027 164.466556 
L 85.624054 165.838793 
L 88.046082 166.956239 
L 90.468109 167.866199 
L 94.10115 168.924378 
L 97.734192 169.701966 
L 101.367233 170.273364 
L 106.211288 170.80682 
L 112.266357 171.228521 
L 120.743453 171.550674 
L 132.85359 171.74721 
L 155.862851 171.841262 
L 256.376992 171.856835 
L 285.441322 171.856837 
L 285.441322 171.856837 
" clip-path="url(#p902356f140)" style="fill: none; stroke: #1f77b4; stroke-width: 1.5; stroke-linecap: square"/>
   </g>
   <g id="line2d_13">
    <path d="M 44.449587 29.186777 
L 45.660601 29.186777 
L 46.871614 34.070637 
L 48.082628 41.648817 
L 50.504656 59.911967 
L 52.926683 78.20502 
L 55.34871 94.543565 
L 57.770738 108.456298 
L 60.192765 120.041969 
L 62.614793 129.584418 
L 63.825807 133.689043 
L 66.247834 140.754642 
L 68.669862 146.52074 
L 71.091889 151.221421 
L 73.513917 155.051476 
L 75.935944 158.171284 
L 78.357972 160.712188 
L 80.779999 162.781452 
L 83.202027 164.466556 
L 85.624054 165.838793 
L 88.046082 166.956239 
L 90.468109 167.866199 
L 94.10115 168.924378 
L 97.734192 169.701966 
L 101.367233 170.273364 
L 106.211288 170.80682 
L 112.266357 171.228521 
L 120.743453 171.550674 
L 132.85359 171.74721 
L 155.862851 171.841262 
L 256.376992 171.856835 
L 285.441322 171.856837 
L 285.441322 171.856837 
" clip-path="url(#p902356f140)" style="fill: none; stroke: #ff7f0e; stroke-width: 1.5; stroke-linecap: square"/>
   </g>
   <g id="line2d_14">
    <path d="M 44.449587 171.856838 
L 285.441322 171.856838 
" clip-path="url(#p902356f140)" style="fill: none; stroke-dasharray: 5.55,2.4; stroke-dashoffset: 0; stroke: #2ca02c; stroke-width: 1.5"/>
   </g>
   <g id="patch_3">
    <path d="M 32.4 188.509091 
L 32.4 21.6 
" style="fill: none; stroke: #000000; stroke-width: 0.8; stroke-linejoin: miter; stroke-linecap: square"/>
   </g>
   <g id="patch_4">
    <path d="M 297.490909 188.509091 
L 297.490909 21.6 
" style="fill: none; stroke: #000000; stroke-width: 0.8; stroke-linejoin: miter; stroke-linecap: square"/>
   </g>
   <g id="patch_5">
    <path d="M 32.4 188.509091 
L 297.490909 188.509091 
" style="fill: none; stroke: #000000; stroke-width: 0.8; stroke-linejoin: miter; stroke-linecap: square"/>
   </g>
   <g id="patch_6">
    <path d="M 32.4 21.6 
L 297.490909 21.6 
" style="fill: none; stroke: #000000; stroke-width: 0.8; stroke-linejoin: miter; stroke-linecap: square"/>
   </g>
   <g id="legend_1">
    <g id="patch_7">
     <path d="M 213.729972 58.95625 
L 290.490909 58.95625 
Q 292.490909 58.95625 292.490909 56.95625 
L 292.490909 28.6 
Q 292.490909 26.6 290.490909 26.6 
L 213.729972 26.6 
Q 211.729972 26.6 211.729972 28.6 
L 211.729972 56.95625 
Q 211.729972 58.95625 213.729972 58.95625 
z
" style="fill: #ffffff; opacity: 0.8; stroke: #cccccc; stroke-linejoin: miter"/>
    </g>
    <g id="line2d_15">
     <path d="M 215.729972 34.698438 
L 225.729972 34.698438 
L 235.729972 34.698438 
" style="fill: none; stroke: #1f77b4; stroke-width: 1.5; stroke-linecap: square"/>
    </g>
    <g id="text_12">
     <!-- LQR -->
     <g transform="translate(243.729972 38.198438)scale(0.1 -0.1)">
      <defs>
       <path id="DejaVuSans-4c" d="M 628 4666 
L 1259 4666 
L 1259 531 
L 3531 531 
L 3531 0 
L 628 0 
L 628 4666 
z
" transform="scale(0.015625)"/>
       <path id="DejaVuSans-51" d="M 2522 4238 
Q 1834 4238 1429 3725 
Q 1025 3213 1025 2328 
Q 1025 1447 1429 934 
Q 1834 422 2522 422 
Q 3209 422 3611 934 
Q 4013 1447 4013 2328 
Q 4013 3213 3611 3725 
Q 3209 4238 2522 4238 
z
M 3406 84 
L 4238 -825 
L 3475 -825 
L 2784 -78 
Q 2681 -84 2626 -87 
Q 2572 -91 2522 -91 
Q 1538 -91 948 567 
Q 359 1225 359 2328 
Q 359 3434 948 4092 
Q 1538 4750 2522 4750 
Q 3503 4750 4090 4092 
Q 4678 3434 4678 2328 
Q 4678 1516 4351 937 
Q 4025 359 3406 84 
z
" transform="scale(0.015625)"/>
       <path id="DejaVuSans-52" d="M 2841 2188 
Q 3044 2119 3236 1894 
Q 3428 1669 3622 1275 
L 4263 0 
L 3584 0 
L 2988 1197 
Q 2756 1666 2539 1819 
Q 2322 1972 1947 1972 
L 1259 1972 
L 1259 0 
L 628 0 
L 628 4666 
L 2053 4666 
Q 2853 4666 3247 4331 
Q 3641 3997 3641 3322 
Q 3641 2881 3436 2590 
Q 3231 2300 2841 2188 
z
M 1259 4147 
L 1259 2491 
L 2053 2491 
Q 2509 2491 2742 2702 
Q 2975 2913 2975 3322 
Q 2975 3731 2742 3939 
Q 2509 4147 2053 4147 
L 1259 4147 
z
" transform="scale(0.015625)"/>
      </defs>
      <use xlink:href="#DejaVuSans-4c"/>
      <use xlink:href="#DejaVuSans-51" x="55.712891"/>
      <use xlink:href="#DejaVuSans-52" x="134.423828"/>
     </g>
    </g>
    <g id="line2d_16">
     <path d="M 215.729972 49.376563 
L 225.729972 49.376563 
L 235.729972 49.376563 
" style="fill: none; stroke: #ff7f0e; stroke-width: 1.5; stroke-linecap: square"/>
    </g>
    <g id="text_13">
     <!-- GPC-LQR -->
     <g transform="translate(243.729972 52.876563)scale(0.1 -0.1)">
      <defs>
       <path id="DejaVuSans-47" d="M 3809 666 
L 3809 1919 
L 2778 1919 
L 2778 2438 
L 4434 2438 
L 4434 434 
Q 4069 175 3628 42 
Q 3188 -91 2688 -91 
Q 1594 -91 976 548 
Q 359 1188 359 2328 
Q 359 3472 976 4111 
Q 1594 4750 2688 4750 
Q 3144 4750 3555 4637 
Q 3966 4525 4313 4306 
L 4313 3634 
Q 3963 3931 3569 4081 
Q 3175 4231 2741 4231 
Q 1884 4231 1454 3753 
Q 1025 3275 1025 2328 
Q 1025 1384 1454 906 
Q 1884 428 2741 428 
Q 3075 428 3337 486 
Q 3600 544 3809 666 
z
" transform="scale(0.015625)"/>
       <path id="DejaVuSans-50" d="M 1259 4147 
L 1259 2394 
L 2053 2394 
Q 2494 2394 2734 2622 
Q 2975 2850 2975 3272 
Q 2975 3691 2734 3919 
Q 2494 4147 2053 4147 
L 1259 4147 
z
M 628 4666 
L 2053 4666 
Q 2838 4666 3239 4311 
Q 3641 3956 3641 3272 
Q 3641 2581 3239 2228 
Q 2838 1875 2053 1875 
L 1259 1875 
L 1259 0 
L 628 0 
L 628 4666 
z
" transform="scale(0.015625)"/>
       <path id="DejaVuSans-43" d="M 4122 4306 
L 4122 3641 
Q 3803 3938 3442 4084 
Q 3081 4231 2675 4231 
Q 1875 4231 1450 3742 
Q 1025 3253 1025 2328 
Q 1025 1406 1450 917 
Q 1875 428 2675 428 
Q 3081 428 3442 575 
Q 3803 722 4122 1019 
L 4122 359 
Q 3791 134 3420 21 
Q 3050 -91 2638 -91 
Q 1578 -91 968 557 
Q 359 1206 359 2328 
Q 359 3453 968 4101 
Q 1578 4750 2638 4750 
Q 3056 4750 3426 4639 
Q 3797 4528 4122 4306 
z
" transform="scale(0.015625)"/>
       <path id="DejaVuSans-2d" d="M 313 2009 
L 1997 2009 
L 1997 1497 
L 313 1497 
L 313 2009 
z
" transform="scale(0.015625)"/>
      </defs>
      <use xlink:href="#DejaVuSans-47"/>
      <use xlink:href="#DejaVuSans-50" x="77.490234"/>
      <use xlink:href="#DejaVuSans-43" x="137.792969"/>
      <use xlink:href="#DejaVuSans-2d" x="207.617188"/>
      <use xlink:href="#DejaVuSans-4c" x="243.701172"/>
      <use xlink:href="#DejaVuSans-51" x="299.414062"/>
      <use xlink:href="#DejaVuSans-52" x="378.125"/>
     </g>
    </g>
   </g>
  </g>
  <g id="axes_2">
   <g id="patch_8">
    <path d="M 350.509091 188.509091 
L 615.6 188.509091 
L 615.6 21.6 
L 350.509091 21.6 
z
" style="fill: #ffffff"/>
   </g>
   <g id="matplotlib.axis_3">
    <g id="xtick_6">
     <g id="line2d_17">
      <g>
       <use xlink:href="#mcd69610795" x="362.558678" y="188.509091" style="stroke: #000000; stroke-width: 0.8"/>
      </g>
     </g>
     <g id="text_14">
      <!-- 0.0 -->
      <g transform="translate(354.607115 203.107528)scale(0.1 -0.1)">
       <use xlink:href="#DejaVuSans-30"/>
       <use xlink:href="#DejaVuSans-2e" x="63.623047"/>
       <use xlink:href="#DejaVuSans-30" x="95.410156"/>
      </g>
     </g>
    </g>
    <g id="xtick_7">
     <g id="line2d_18">
      <g>
       <use xlink:href="#mcd69610795" x="422.806612" y="188.509091" style="stroke: #000000; stroke-width: 0.8"/>
      </g>
     </g>
     <g id="text_15">
      <!-- 0.5 -->
      <g transform="translate(414.855049 203.107528)scale(0.1 -0.1)">
       <use xlink:href="#DejaVuSans-30"/>
       <use xlink:href="#DejaVuSans-2e" x="63.623047"/>
       <use xlink:href="#DejaVuSans-35" x="95.410156"/>
      </g>
     </g>
    </g>
    <g id="xtick_8">
     <g id="line2d_19">
      <g>
       <use xlink:href="#mcd69610795" x="483.054545" y="188.509091" style="stroke: #000000; stroke-width: 0.8"/>
      </g>
     </g>
     <g id="text_16">
      <!-- 1.0 -->
      <g transform="translate(475.102983 203.107528)scale(0.1 -0.1)">
       <use xlink:href="#DejaVuSans-31"/>
       <use xlink:href="#DejaVuSans-2e" x="63.623047"/>
       <use xlink:href="#DejaVuSans-30" x="95.410156"/>
      </g>
     </g>
    </g>
    <g id="xtick_9">
     <g id="line2d_20">
      <g>
       <use xlink:href="#mcd69610795" x="543.302479" y="188.509091" style="stroke: #000000; stroke-width: 0.8"/>
      </g>
     </g>
     <g id="text_17">
      <!-- 1.5 -->
      <g transform="translate(535.350917 203.107528)scale(0.1 -0.1)">
       <use xlink:href="#DejaVuSans-31"/>
       <use xlink:href="#DejaVuSans-2e" x="63.623047"/>
       <use xlink:href="#DejaVuSans-35" x="95.410156"/>
      </g>
     </g>
    </g>
    <g id="xtick_10">
     <g id="line2d_21">
      <g>
       <use xlink:href="#mcd69610795" x="603.550413" y="188.509091" style="stroke: #000000; stroke-width: 0.8"/>
      </g>
     </g>
     <g id="text_18">
      <!-- 2.0 -->
      <g transform="translate(595.598851 203.107528)scale(0.1 -0.1)">
       <use xlink:href="#DejaVuSans-32"/>
       <use xlink:href="#DejaVuSans-2e" x="63.623047"/>
       <use xlink:href="#DejaVuSans-30" x="95.410156"/>
      </g>
     </g>
    </g>
   </g>
   <g id="matplotlib.axis_4">
    <g id="ytick_7">
     <g id="line2d_22">
      <g>
       <use xlink:href="#m0041c25edc" x="350.509091" y="171.856838" style="stroke: #000000; stroke-width: 0.8"/>
      </g>
     </g>
    </g>
    <g id="ytick_8">
     <g id="line2d_23">
      <g>
       <use xlink:href="#m0041c25edc" x="350.509091" y="143.322825" style="stroke: #000000; stroke-width: 0.8"/>
      </g>
     </g>
    </g>
    <g id="ytick_9">
     <g id="line2d_24">
      <g>
       <use xlink:href="#m0041c25edc" x="350.509091" y="114.788813" style="stroke: #000000; stroke-width: 0.8"/>
      </g>
     </g>
    </g>
    <g id="ytick_10">
     <g id="line2d_25">
      <g>
       <use xlink:href="#m0041c25edc" x="350.509091" y="86.254801" style="stroke: #000000; stroke-width: 0.8"/>
      </g>
     </g>
    </g>
    <g id="ytick_11">
     <g id="line2d_26">
      <g>
       <use xlink:href="#m0041c25edc" x="350.509091" y="57.720789" style="stroke: #000000; stroke-width: 0.8"/>
      </g>
     </g>
    </g>
    <g id="ytick_12">
     <g id="line2d_27">
      <g>
       <use xlink:href="#m0041c25edc" x="350.509091" y="29.186777" style="stroke: #000000; stroke-width: 0.8"/>
      </g>
     </g>
    </g>
   </g>
   <g id="line2d_28">
    <path d="M 362.558678 29.186777 
L 363.769691 29.204233 
L 364.980705 33.972141 
L 366.191719 41.582194 
L 373.457801 93.814715 
L 375.879829 107.656602 
L 377.090843 113.839178 
L 378.301856 119.393729 
L 380.723884 128.906022 
L 383.145911 136.921962 
L 385.567939 143.6028 
L 386.778953 146.516856 
L 387.989966 148.978905 
L 390.411994 153.258097 
L 392.834021 156.67303 
L 395.256049 159.466312 
L 397.678076 161.869727 
L 400.100104 163.586854 
L 401.311118 164.435073 
L 402.522131 165.137294 
L 404.944159 166.186785 
L 406.155173 166.467084 
L 409.788214 167.755157 
L 413.421255 168.782387 
L 417.054296 169.552341 
L 419.476324 169.903657 
L 429.164434 171.103373 
L 430.375447 171.193522 
L 431.586461 171.422434 
L 434.008489 171.580944 
L 436.430516 171.536582 
L 438.852544 171.29137 
L 440.063557 171.396226 
L 441.274571 171.307248 
L 446.118626 171.74064 
L 449.751667 171.598216 
L 453.384709 171.346788 
L 455.806736 171.354591 
L 459.439777 171.275351 
L 465.494846 171.413032 
L 466.70586 171.160015 
L 467.916874 171.115282 
L 469.127887 170.888864 
L 473.971942 170.599718 
L 478.815997 170.805952 
L 486.08208 170.285855 
L 488.504107 170.740223 
L 492.137149 171.63102 
L 493.348162 171.652192 
L 494.559176 171.809405 
L 495.77019 171.836364 
L 498.192217 171.505374 
L 499.403231 171.186615 
L 501.825259 171.246691 
L 504.247286 171.377571 
L 507.880327 171.561025 
L 510.302355 172.036656 
L 513.935396 172.308526 
L 516.357423 172.005951 
L 517.568437 172.233817 
L 518.779451 172.288212 
L 523.623506 171.796196 
L 530.889588 171.326067 
L 536.944657 171.850682 
L 539.366685 171.99145 
L 541.788712 172.094256 
L 552.687836 171.758634 
L 553.89885 171.534309 
L 555.109863 171.154876 
L 556.320877 170.921482 
L 561.164932 170.868984 
L 564.797973 171.047143 
L 566.008987 171.211548 
L 567.220001 171.244699 
L 572.064056 172.227555 
L 574.486083 172.42452 
L 581.752166 172.182707 
L 582.96318 172.222171 
L 585.385207 172.586799 
L 589.018248 172.452389 
L 591.440276 172.058659 
L 592.65129 171.685677 
L 596.284331 171.658847 
L 599.917372 171.757584 
L 603.550413 172.209415 
L 603.550413 172.209415 
" clip-path="url(#p54cbefd0b0)" style="fill: none; stroke: #1f77b4; stroke-width: 1.5; stroke-linecap: square"/>
   </g>
   <g id="line2d_29">
    <path d="M 362.558678 29.186777 
L 363.769691 29.204233 
L 364.980705 33.972141 
L 366.191719 41.582194 
L 373.457801 93.813018 
L 375.879829 107.634824 
L 377.090843 113.800566 
L 378.301856 119.337084 
L 380.723884 128.825429 
L 383.145911 136.833847 
L 385.567939 143.519901 
L 386.778953 146.438749 
L 387.989966 148.904229 
L 390.411994 153.209252 
L 392.834021 156.656791 
L 395.256049 159.475282 
L 397.678076 161.885793 
L 400.100104 163.606001 
L 401.311118 164.455879 
L 402.522131 165.157756 
L 404.944159 166.209404 
L 406.155173 166.4916 
L 409.788214 167.764223 
L 413.421255 168.751791 
L 418.26531 169.733786 
L 424.320379 170.445094 
L 427.95342 170.984166 
L 430.375447 171.161171 
L 431.586461 171.396541 
L 434.008489 171.570867 
L 436.430516 171.542612 
L 438.852544 171.308052 
L 440.063557 171.415516 
L 441.274571 171.323803 
L 446.118626 171.721645 
L 449.751667 171.582623 
L 453.384709 171.34597 
L 455.806736 171.344277 
L 459.439777 171.237076 
L 465.494846 171.347633 
L 466.70586 171.09347 
L 467.916874 171.05093 
L 469.127887 170.826484 
L 473.971942 170.506982 
L 478.815997 170.644436 
L 486.08208 170.139375 
L 488.504107 170.576482 
L 492.137149 171.441388 
L 493.348162 171.471015 
L 494.559176 171.649496 
L 495.77019 171.706329 
L 498.192217 171.444448 
L 499.403231 171.156991 
L 501.825259 171.244688 
L 504.247286 171.355456 
L 507.880327 171.49517 
L 510.302355 171.973204 
L 513.935396 172.273046 
L 516.357423 172.010176 
L 517.568437 172.261957 
L 518.779451 172.329756 
L 524.83452 171.74642 
L 527.256547 171.584428 
L 529.678575 171.337314 
L 530.889588 171.318596 
L 536.944657 171.789856 
L 539.366685 171.946233 
L 541.788712 172.081918 
L 551.476822 171.909856 
L 553.89885 171.558859 
L 555.109863 171.175391 
L 556.320877 170.936878 
L 562.375946 170.832478 
L 567.220001 171.099266 
L 572.064056 172.113575 
L 574.486083 172.346476 
L 581.752166 172.243918 
L 582.96318 172.282885 
L 585.385207 172.63323 
L 589.018248 172.505363 
L 591.440276 172.134438 
L 592.65129 171.773364 
L 597.495344 171.71157 
L 599.917372 171.743974 
L 603.550413 172.164209 
L 603.550413 172.164209 
" clip-path="url(#p54cbefd0b0)" style="fill: none; stroke: #ff7f0e; stroke-width: 1.5; stroke-linecap: square"/>
   </g>
   <g id="line2d_30">
    <path d="M 362.558678 171.856838 
L 603.550413 171.856838 
" clip-path="url(#p54cbefd0b0)" style="fill: none; stroke-dasharray: 5.55,2.4; stroke-dashoffset: 0; stroke: #2ca02c; stroke-width: 1.5"/>
   </g>
   <g id="patch_9">
    <path d="M 350.509091 188.509091 
L 350.509091 21.6 
" style="fill: none; stroke: #000000; stroke-width: 0.8; stroke-linejoin: miter; stroke-linecap: square"/>
   </g>
   <g id="patch_10">
    <path d="M 615.6 188.509091 
L 615.6 21.6 
" style="fill: none; stroke: #000000; stroke-width: 0.8; stroke-linejoin: miter; stroke-linecap: square"/>
   </g>
   <g id="patch_11">
    <path d="M 350.509091 188.509091 
L 615.6 188.509091 
" style="fill: none; stroke: #000000; stroke-width: 0.8; stroke-linejoin: miter; stroke-linecap: square"/>
   </g>
   <g id="patch_12">
    <path d="M 350.509091 21.6 
L 615.6 21.6 
" style="fill: none; stroke: #000000; stroke-width: 0.8; stroke-linejoin: miter; stroke-linecap: square"/>
   </g>
   <g id="legend_2">
    <g id="patch_13">
     <path d="M 531.839062 58.95625 
L 608.6 58.95625 
Q 610.6 58.95625 610.6 56.95625 
L 610.6 28.6 
Q 610.6 26.6 608.6 26.6 
L 531.839062 26.6 
Q 529.839062 26.6 529.839062 28.6 
L 529.839062 56.95625 
Q 529.839062 58.95625 531.839062 58.95625 
z
" style="fill: #ffffff; opacity: 0.8; stroke: #cccccc; stroke-linejoin: miter"/>
    </g>
    <g id="line2d_31">
     <path d="M 533.839062 34.698438 
L 543.839062 34.698438 
L 553.839062 34.698438 
" style="fill: none; stroke: #1f77b4; stroke-width: 1.5; stroke-linecap: square"/>
    </g>
    <g id="text_19">
     <!-- LQR -->
     <g transform="translate(561.839062 38.198438)scale(0.1 -0.1)">
      <use xlink:href="#DejaVuSans-4c"/>
      <use xlink:href="#DejaVuSans-51" x="55.712891"/>
      <use xlink:href="#DejaVuSans-52" x="134.423828"/>
     </g>
    </g>
    <g id="line2d_32">
     <path d="M 533.839062 49.376563 
L 543.839062 49.376563 
L 553.839062 49.376563 
" style="fill: none; stroke: #ff7f0e; stroke-width: 1.5; stroke-linecap: square"/>
    </g>
    <g id="text_20">
     <!-- GPC-LQR -->
     <g transform="translate(561.839062 52.876563)scale(0.1 -0.1)">
      <use xlink:href="#DejaVuSans-47"/>
      <use xlink:href="#DejaVuSans-50" x="77.490234"/>
      <use xlink:href="#DejaVuSans-43" x="137.792969"/>
      <use xlink:href="#DejaVuSans-2d" x="207.617188"/>
      <use xlink:href="#DejaVuSans-4c" x="243.701172"/>
      <use xlink:href="#DejaVuSans-51" x="299.414062"/>
      <use xlink:href="#DejaVuSans-52" x="378.125"/>
     </g>
    </g>
   </g>
  </g>
  <g id="axes_3">
   <g id="patch_14">
    <path d="M 32.4 388.8 
L 297.490909 388.8 
L 297.490909 221.890909 
L 32.4 221.890909 
z
" style="fill: #ffffff"/>
   </g>
   <g id="matplotlib.axis_5">
    <g id="xtick_11">
     <g id="line2d_33">
      <g>
       <use xlink:href="#mcd69610795" x="44.449587" y="388.8" style="stroke: #000000; stroke-width: 0.8"/>
      </g>
     </g>
     <g id="text_21">
      <!-- 0.0 -->
      <g transform="translate(36.498024 403.398437)scale(0.1 -0.1)">
       <use xlink:href="#DejaVuSans-30"/>
       <use xlink:href="#DejaVuSans-2e" x="63.623047"/>
       <use xlink:href="#DejaVuSans-30" x="95.410156"/>
      </g>
     </g>
    </g>
    <g id="xtick_12">
     <g id="line2d_34">
      <g>
       <use xlink:href="#mcd69610795" x="104.697521" y="388.8" style="stroke: #000000; stroke-width: 0.8"/>
      </g>
     </g>
     <g id="text_22">
      <!-- 0.5 -->
      <g transform="translate(96.745958 403.398437)scale(0.1 -0.1)">
       <use xlink:href="#DejaVuSans-30"/>
       <use xlink:href="#DejaVuSans-2e" x="63.623047"/>
       <use xlink:href="#DejaVuSans-35" x="95.410156"/>
      </g>
     </g>
    </g>
    <g id="xtick_13">
     <g id="line2d_35">
      <g>
       <use xlink:href="#mcd69610795" x="164.945455" y="388.8" style="stroke: #000000; stroke-width: 0.8"/>
      </g>
     </g>
     <g id="text_23">
      <!-- 1.0 -->
      <g transform="translate(156.993892 403.398437)scale(0.1 -0.1)">
       <use xlink:href="#DejaVuSans-31"/>
       <use xlink:href="#DejaVuSans-2e" x="63.623047"/>
       <use xlink:href="#DejaVuSans-30" x="95.410156"/>
      </g>
     </g>
    </g>
    <g id="xtick_14">
     <g id="line2d_36">
      <g>
       <use xlink:href="#mcd69610795" x="225.193388" y="388.8" style="stroke: #000000; stroke-width: 0.8"/>
      </g>
     </g>
     <g id="text_24">
      <!-- 1.5 -->
      <g transform="translate(217.241826 403.398437)scale(0.1 -0.1)">
       <use xlink:href="#DejaVuSans-31"/>
       <use xlink:href="#DejaVuSans-2e" x="63.623047"/>
       <use xlink:href="#DejaVuSans-35" x="95.410156"/>
      </g>
     </g>
    </g>
    <g id="xtick_15">
     <g id="line2d_37">
      <g>
       <use xlink:href="#mcd69610795" x="285.441322" y="388.8" style="stroke: #000000; stroke-width: 0.8"/>
      </g>
     </g>
     <g id="text_25">
      <!-- 2.0 -->
      <g transform="translate(277.48976 403.398437)scale(0.1 -0.1)">
       <use xlink:href="#DejaVuSans-32"/>
       <use xlink:href="#DejaVuSans-2e" x="63.623047"/>
       <use xlink:href="#DejaVuSans-30" x="95.410156"/>
      </g>
     </g>
    </g>
   </g>
   <g id="matplotlib.axis_6">
    <g id="ytick_13">
     <g id="line2d_38">
      <g>
       <use xlink:href="#m0041c25edc" x="32.4" y="372.147747" style="stroke: #000000; stroke-width: 0.8"/>
      </g>
     </g>
     <g id="text_26">
      <!-- 0 -->
      <g transform="translate(19.0375 375.946965)scale(0.1 -0.1)">
       <use xlink:href="#DejaVuSans-30"/>
      </g>
     </g>
    </g>
    <g id="ytick_14">
     <g id="line2d_39">
      <g>
       <use xlink:href="#m0041c25edc" x="32.4" y="343.613735" style="stroke: #000000; stroke-width: 0.8"/>
      </g>
     </g>
     <g id="text_27">
      <!-- 1 -->
      <g transform="translate(19.0375 347.412953)scale(0.1 -0.1)">
       <use xlink:href="#DejaVuSans-31"/>
      </g>
     </g>
    </g>
    <g id="ytick_15">
     <g id="line2d_40">
      <g>
       <use xlink:href="#m0041c25edc" x="32.4" y="315.079722" style="stroke: #000000; stroke-width: 0.8"/>
      </g>
     </g>
     <g id="text_28">
      <!-- 2 -->
      <g transform="translate(19.0375 318.878941)scale(0.1 -0.1)">
       <use xlink:href="#DejaVuSans-32"/>
      </g>
     </g>
    </g>
    <g id="ytick_16">
     <g id="line2d_41">
      <g>
       <use xlink:href="#m0041c25edc" x="32.4" y="286.54571" style="stroke: #000000; stroke-width: 0.8"/>
      </g>
     </g>
     <g id="text_29">
      <!-- 3 -->
      <g transform="translate(19.0375 290.344929)scale(0.1 -0.1)">
       <use xlink:href="#DejaVuSans-33"/>
      </g>
     </g>
    </g>
    <g id="ytick_17">
     <g id="line2d_42">
      <g>
       <use xlink:href="#m0041c25edc" x="32.4" y="258.011698" style="stroke: #000000; stroke-width: 0.8"/>
      </g>
     </g>
     <g id="text_30">
      <!-- 4 -->
      <g transform="translate(19.0375 261.810917)scale(0.1 -0.1)">
       <use xlink:href="#DejaVuSans-34"/>
      </g>
     </g>
    </g>
    <g id="ytick_18">
     <g id="line2d_43">
      <g>
       <use xlink:href="#m0041c25edc" x="32.4" y="229.477686" style="stroke: #000000; stroke-width: 0.8"/>
      </g>
     </g>
     <g id="text_31">
      <!-- 5 -->
      <g transform="translate(19.0375 233.276905)scale(0.1 -0.1)">
       <use xlink:href="#DejaVuSans-35"/>
      </g>
     </g>
    </g>
   </g>
   <g id="line2d_44">
    <path d="M 44.449587 229.477686 
L 45.660601 229.477686 
L 46.871614 234.646887 
L 48.082628 242.667822 
L 50.504656 261.997998 
L 52.926683 281.359826 
L 55.34871 298.652953 
L 57.770738 313.378538 
L 60.192765 325.641104 
L 62.614793 335.741071 
L 63.825807 340.085509 
L 65.03682 344.013848 
L 67.458848 350.770827 
L 69.880875 356.281711 
L 72.302903 360.772922 
L 74.72493 364.43171 
L 77.146958 367.411761 
L 79.568985 369.838734 
L 81.991013 371.815171 
L 84.41304 373.424663 
L 86.835068 374.735318 
L 89.257095 375.802614 
L 91.679123 376.671733 
L 95.312164 377.682419 
L 98.945205 378.425107 
L 103.78926 379.118478 
L 108.633315 379.578259 
L 114.688384 379.94172 
L 123.16548 380.219381 
L 136.486632 380.397997 
L 163.128934 380.474359 
L 285.441322 380.483261 
L 285.441322 380.483261 
" clip-path="url(#pcb7481c118)" style="fill: none; stroke: #1f77b4; stroke-width: 1.5; stroke-linecap: square"/>
   </g>
   <g id="line2d_45">
    <path d="M 44.449587 229.477686 
L 45.660601 229.477686 
L 46.871614 234.646887 
L 48.082628 242.667822 
L 50.504656 261.998745 
L 52.926683 281.361051 
L 55.34871 298.590972 
L 56.559724 306.125698 
L 57.770738 312.914701 
L 58.981752 318.984609 
L 60.192765 324.38422 
L 61.403779 329.17408 
L 62.614793 333.418363 
L 63.825807 337.179422 
L 65.03682 340.514638 
L 66.247834 343.474994 
L 67.458848 346.104777 
L 68.669862 348.442657 
L 69.880875 350.522527 
L 72.302903 354.023815 
L 74.72493 356.806862 
L 77.146958 359.026015 
L 79.568985 360.801826 
L 81.991013 362.228632 
L 84.41304 363.380338 
L 86.835068 364.314893 
L 90.468109 365.40629 
L 94.10115 366.22356 
L 98.945205 367.02095 
L 105.000274 367.714366 
L 112.266357 368.283005 
L 121.954467 368.797719 
L 135.275618 369.27426 
L 154.651838 369.729463 
L 181.29414 370.111016 
L 217.624553 370.386329 
L 273.331185 370.556865 
L 285.441322 370.574551 
L 285.441322 370.574551 
" clip-path="url(#pcb7481c118)" style="fill: none; stroke: #ff7f0e; stroke-width: 1.5; stroke-linecap: square"/>
   </g>
   <g id="line2d_46">
    <path d="M 44.449587 372.147747 
L 285.441322 372.147747 
" clip-path="url(#pcb7481c118)" style="fill: none; stroke-dasharray: 5.55,2.4; stroke-dashoffset: 0; stroke: #2ca02c; stroke-width: 1.5"/>
   </g>
   <g id="patch_15">
    <path d="M 32.4 388.8 
L 32.4 221.890909 
" style="fill: none; stroke: #000000; stroke-width: 0.8; stroke-linejoin: miter; stroke-linecap: square"/>
   </g>
   <g id="patch_16">
    <path d="M 297.490909 388.8 
L 297.490909 221.890909 
" style="fill: none; stroke: #000000; stroke-width: 0.8; stroke-linejoin: miter; stroke-linecap: square"/>
   </g>
   <g id="patch_17">
    <path d="M 32.4 388.8 
L 297.490909 388.8 
" style="fill: none; stroke: #000000; stroke-width: 0.8; stroke-linejoin: miter; stroke-linecap: square"/>
   </g>
   <g id="patch_18">
    <path d="M 32.4 221.890909 
L 297.490909 221.890909 
" style="fill: none; stroke: #000000; stroke-width: 0.8; stroke-linejoin: miter; stroke-linecap: square"/>
   </g>
   <g id="legend_3">
    <g id="patch_19">
     <path d="M 213.729972 259.247159 
L 290.490909 259.247159 
Q 292.490909 259.247159 292.490909 257.247159 
L 292.490909 228.890909 
Q 292.490909 226.890909 290.490909 226.890909 
L 213.729972 226.890909 
Q 211.729972 226.890909 211.729972 228.890909 
L 211.729972 257.247159 
Q 211.729972 259.247159 213.729972 259.247159 
z
" style="fill: #ffffff; opacity: 0.8; stroke: #cccccc; stroke-linejoin: miter"/>
    </g>
    <g id="line2d_47">
     <path d="M 215.729972 234.989347 
L 225.729972 234.989347 
L 235.729972 234.989347 
" style="fill: none; stroke: #1f77b4; stroke-width: 1.5; stroke-linecap: square"/>
    </g>
    <g id="text_32">
     <!-- LQR -->
     <g transform="translate(243.729972 238.489347)scale(0.1 -0.1)">
      <use xlink:href="#DejaVuSans-4c"/>
      <use xlink:href="#DejaVuSans-51" x="55.712891"/>
      <use xlink:href="#DejaVuSans-52" x="134.423828"/>
     </g>
    </g>
    <g id="line2d_48">
     <path d="M 215.729972 249.667472 
L 225.729972 249.667472 
L 235.729972 249.667472 
" style="fill: none; stroke: #ff7f0e; stroke-width: 1.5; stroke-linecap: square"/>
    </g>
    <g id="text_33">
     <!-- GPC-LQR -->
     <g transform="translate(243.729972 253.167472)scale(0.1 -0.1)">
      <use xlink:href="#DejaVuSans-47"/>
      <use xlink:href="#DejaVuSans-50" x="77.490234"/>
      <use xlink:href="#DejaVuSans-43" x="137.792969"/>
      <use xlink:href="#DejaVuSans-2d" x="207.617188"/>
      <use xlink:href="#DejaVuSans-4c" x="243.701172"/>
      <use xlink:href="#DejaVuSans-51" x="299.414062"/>
      <use xlink:href="#DejaVuSans-52" x="378.125"/>
     </g>
    </g>
   </g>
  </g>
  <g id="axes_4">
   <g id="patch_20">
    <path d="M 350.509091 388.8 
L 615.6 388.8 
L 615.6 221.890909 
L 350.509091 221.890909 
z
" style="fill: #ffffff"/>
   </g>
   <g id="matplotlib.axis_7">
    <g id="xtick_16">
     <g id="line2d_49">
      <g>
       <use xlink:href="#mcd69610795" x="362.558678" y="388.8" style="stroke: #000000; stroke-width: 0.8"/>
      </g>
     </g>
     <g id="text_34">
      <!-- 0.0 -->
      <g transform="translate(354.607115 403.398437)scale(0.1 -0.1)">
       <use xlink:href="#DejaVuSans-30"/>
       <use xlink:href="#DejaVuSans-2e" x="63.623047"/>
       <use xlink:href="#DejaVuSans-30" x="95.410156"/>
      </g>
     </g>
    </g>
    <g id="xtick_17">
     <g id="line2d_50">
      <g>
       <use xlink:href="#mcd69610795" x="422.806612" y="388.8" style="stroke: #000000; stroke-width: 0.8"/>
      </g>
     </g>
     <g id="text_35">
      <!-- 0.5 -->
      <g transform="translate(414.855049 403.398437)scale(0.1 -0.1)">
       <use xlink:href="#DejaVuSans-30"/>
       <use xlink:href="#DejaVuSans-2e" x="63.623047"/>
       <use xlink:href="#DejaVuSans-35" x="95.410156"/>
      </g>
     </g>
    </g>
    <g id="xtick_18">
     <g id="line2d_51">
      <g>
       <use xlink:href="#mcd69610795" x="483.054545" y="388.8" style="stroke: #000000; stroke-width: 0.8"/>
      </g>
     </g>
     <g id="text_36">
      <!-- 1.0 -->
      <g transform="translate(475.102983 403.398437)scale(0.1 -0.1)">
       <use xlink:href="#DejaVuSans-31"/>
       <use xlink:href="#DejaVuSans-2e" x="63.623047"/>
       <use xlink:href="#DejaVuSans-30" x="95.410156"/>
      </g>
     </g>
    </g>
    <g id="xtick_19">
     <g id="line2d_52">
      <g>
       <use xlink:href="#mcd69610795" x="543.302479" y="388.8" style="stroke: #000000; stroke-width: 0.8"/>
      </g>
     </g>
     <g id="text_37">
      <!-- 1.5 -->
      <g transform="translate(535.350917 403.398437)scale(0.1 -0.1)">
       <use xlink:href="#DejaVuSans-31"/>
       <use xlink:href="#DejaVuSans-2e" x="63.623047"/>
       <use xlink:href="#DejaVuSans-35" x="95.410156"/>
      </g>
     </g>
    </g>
    <g id="xtick_20">
     <g id="line2d_53">
      <g>
       <use xlink:href="#mcd69610795" x="603.550413" y="388.8" style="stroke: #000000; stroke-width: 0.8"/>
      </g>
     </g>
     <g id="text_38">
      <!-- 2.0 -->
      <g transform="translate(595.598851 403.398437)scale(0.1 -0.1)">
       <use xlink:href="#DejaVuSans-32"/>
       <use xlink:href="#DejaVuSans-2e" x="63.623047"/>
       <use xlink:href="#DejaVuSans-30" x="95.410156"/>
      </g>
     </g>
    </g>
   </g>
   <g id="matplotlib.axis_8">
    <g id="ytick_19">
     <g id="line2d_54">
      <g>
       <use xlink:href="#m0041c25edc" x="350.509091" y="372.147747" style="stroke: #000000; stroke-width: 0.8"/>
      </g>
     </g>
    </g>
    <g id="ytick_20">
     <g id="line2d_55">
      <g>
       <use xlink:href="#m0041c25edc" x="350.509091" y="343.613735" style="stroke: #000000; stroke-width: 0.8"/>
      </g>
     </g>
    </g>
    <g id="ytick_21">
     <g id="line2d_56">
      <g>
       <use xlink:href="#m0041c25edc" x="350.509091" y="315.079722" style="stroke: #000000; stroke-width: 0.8"/>
      </g>
     </g>
    </g>
    <g id="ytick_22">
     <g id="line2d_57">
      <g>
       <use xlink:href="#m0041c25edc" x="350.509091" y="286.54571" style="stroke: #000000; stroke-width: 0.8"/>
      </g>
     </g>
    </g>
    <g id="ytick_23">
     <g id="line2d_58">
      <g>
       <use xlink:href="#m0041c25edc" x="350.509091" y="258.011698" style="stroke: #000000; stroke-width: 0.8"/>
      </g>
     </g>
    </g>
    <g id="ytick_24">
     <g id="line2d_59">
      <g>
       <use xlink:href="#m0041c25edc" x="350.509091" y="229.477686" style="stroke: #000000; stroke-width: 0.8"/>
      </g>
     </g>
    </g>
   </g>
   <g id="line2d_60">
    <path d="M 362.558678 229.477686 
L 363.769691 229.495142 
L 364.980705 234.54839 
L 366.191719 242.601199 
L 373.457801 297.924102 
L 375.879829 312.578842 
L 377.090843 319.115933 
L 378.301856 324.992863 
L 380.723884 335.062675 
L 383.145911 343.535273 
L 385.567939 350.589096 
L 386.778953 353.663015 
L 387.989966 356.269402 
L 390.411994 360.79651 
L 392.834021 364.413407 
L 395.256049 367.371189 
L 397.678076 369.908572 
L 400.100104 371.734799 
L 401.311118 372.629719 
L 402.522131 373.374083 
L 404.944159 374.495922 
L 406.155173 374.80719 
L 409.788214 376.171184 
L 413.421255 377.254204 
L 417.054296 378.065155 
L 419.476324 378.437566 
L 429.164434 379.689116 
L 430.375447 379.783236 
L 431.586461 380.015731 
L 434.008489 380.180392 
L 436.430516 380.14104 
L 438.852544 379.899907 
L 440.063557 380.006508 
L 441.274571 379.919106 
L 446.118626 380.357405 
L 449.751667 380.217542 
L 453.384709 379.967996 
L 455.806736 379.976768 
L 459.439777 379.898654 
L 465.494846 380.037589 
L 466.70586 379.784754 
L 467.916874 379.740185 
L 469.127887 379.513915 
L 473.971942 379.225231 
L 478.815997 379.431772 
L 486.08208 378.911953 
L 488.504107 379.366381 
L 492.137149 380.257249 
L 493.348162 380.27844 
L 494.559176 380.43567 
L 495.77019 380.462644 
L 498.192217 380.131681 
L 499.403231 379.812934 
L 501.825259 379.873029 
L 504.247286 380.003925 
L 507.880327 380.187398 
L 510.302355 380.663038 
L 513.935396 380.934919 
L 516.357423 380.63235 
L 517.568437 380.860219 
L 518.779451 380.914615 
L 523.623506 380.422606 
L 530.889588 379.952484 
L 536.944657 380.477102 
L 539.366685 380.617871 
L 541.788712 380.720677 
L 552.687836 380.385057 
L 553.89885 380.160732 
L 555.109863 379.781298 
L 556.320877 379.547905 
L 561.164932 379.495407 
L 564.797973 379.673567 
L 566.008987 379.837971 
L 567.220001 379.871122 
L 572.064056 380.853979 
L 574.486083 381.050944 
L 581.752166 380.809131 
L 582.96318 380.848595 
L 585.385207 381.213223 
L 589.018248 381.078813 
L 591.440276 380.685083 
L 592.65129 380.312101 
L 596.284331 380.285271 
L 599.917372 380.384008 
L 603.550413 380.835838 
L 603.550413 380.835838 
" clip-path="url(#p2f6598d98e)" style="fill: none; stroke: #1f77b4; stroke-width: 1.5; stroke-linecap: square"/>
   </g>
   <g id="line2d_61">
    <path d="M 362.558678 229.477686 
L 363.769691 229.495142 
L 364.980705 234.54839 
L 366.191719 242.601199 
L 373.457801 297.894568 
L 375.879829 312.3295 
L 377.090843 318.656907 
L 378.301856 324.244378 
L 379.51287 329.164201 
L 380.723884 333.55097 
L 383.145911 341.084754 
L 384.356925 344.264499 
L 385.567939 347.08428 
L 386.778953 349.600894 
L 387.989966 351.635716 
L 390.411994 355.050808 
L 392.834021 357.608181 
L 395.256049 359.678739 
L 397.678076 361.524415 
L 401.311118 363.396487 
L 402.522131 363.913942 
L 404.944159 364.664052 
L 406.155173 364.844457 
L 412.210241 366.870196 
L 414.632269 367.484531 
L 418.26531 368.048388 
L 421.898351 368.263238 
L 426.742406 368.736234 
L 427.95342 368.935758 
L 430.375447 368.996801 
L 431.586461 369.162667 
L 435.219502 369.12192 
L 438.852544 368.819416 
L 440.063557 368.988981 
L 441.274571 368.960559 
L 446.118626 369.660051 
L 449.751667 369.505197 
L 453.384709 369.337706 
L 455.806736 369.520055 
L 459.439777 369.726151 
L 463.072819 370.09094 
L 465.494846 370.093525 
L 466.70586 369.867737 
L 467.916874 369.875427 
L 469.127887 369.705437 
L 472.760929 369.729113 
L 476.39397 370.388436 
L 478.815997 370.575108 
L 486.08208 370.198814 
L 489.715121 371.08293 
L 490.926135 371.395675 
L 492.137149 371.519809 
L 493.348162 371.354018 
L 494.559176 371.305586 
L 495.77019 371.09955 
L 499.403231 369.978043 
L 500.614245 369.979209 
L 507.880327 370.79489 
L 510.302355 371.187307 
L 513.935396 371.122966 
L 516.357423 370.620975 
L 517.568437 370.791101 
L 518.779451 370.779664 
L 521.201478 370.507611 
L 527.256547 370.357505 
L 529.678575 370.389898 
L 532.100602 370.73358 
L 534.52263 371.08378 
L 536.944657 371.13239 
L 539.366685 371.11431 
L 541.788712 370.991976 
L 544.21074 370.75572 
L 545.421753 370.815573 
L 547.843781 370.585086 
L 551.476822 370.648543 
L 553.89885 370.41037 
L 555.109863 370.112994 
L 556.320877 370.024052 
L 561.164932 370.672717 
L 563.58696 371.061279 
L 568.431015 371.497862 
L 569.642028 371.728169 
L 572.064056 371.820639 
L 574.486083 371.625459 
L 578.119125 370.866226 
L 581.752166 370.760883 
L 582.96318 370.823499 
L 585.385207 371.204577 
L 587.807235 371.044667 
L 590.229262 370.748395 
L 592.65129 370.167998 
L 595.073317 370.294439 
L 597.495344 370.725972 
L 603.550413 371.483346 
L 603.550413 371.483346 
" clip-path="url(#p2f6598d98e)" style="fill: none; stroke: #ff7f0e; stroke-width: 1.5; stroke-linecap: square"/>
   </g>
   <g id="line2d_62">
    <path d="M 362.558678 372.147747 
L 603.550413 372.147747 
" clip-path="url(#p2f6598d98e)" style="fill: none; stroke-dasharray: 5.55,2.4; stroke-dashoffset: 0; stroke: #2ca02c; stroke-width: 1.5"/>
   </g>
   <g id="patch_21">
    <path d="M 350.509091 388.8 
L 350.509091 221.890909 
" style="fill: none; stroke: #000000; stroke-width: 0.8; stroke-linejoin: miter; stroke-linecap: square"/>
   </g>
   <g id="patch_22">
    <path d="M 615.6 388.8 
L 615.6 221.890909 
" style="fill: none; stroke: #000000; stroke-width: 0.8; stroke-linejoin: miter; stroke-linecap: square"/>
   </g>
   <g id="patch_23">
    <path d="M 350.509091 388.8 
L 615.6 388.8 
" style="fill: none; stroke: #000000; stroke-width: 0.8; stroke-linejoin: miter; stroke-linecap: square"/>
   </g>
   <g id="patch_24">
    <path d="M 350.509091 221.890909 
L 615.6 221.890909 
" style="fill: none; stroke: #000000; stroke-width: 0.8; stroke-linejoin: miter; stroke-linecap: square"/>
   </g>
   <g id="legend_4">
    <g id="patch_25">
     <path d="M 531.839062 259.247159 
L 608.6 259.247159 
Q 610.6 259.247159 610.6 257.247159 
L 610.6 228.890909 
Q 610.6 226.890909 608.6 226.890909 
L 531.839062 226.890909 
Q 529.839062 226.890909 529.839062 228.890909 
L 529.839062 257.247159 
Q 529.839062 259.247159 531.839062 259.247159 
z
" style="fill: #ffffff; opacity: 0.8; stroke: #cccccc; stroke-linejoin: miter"/>
    </g>
    <g id="line2d_63">
     <path d="M 533.839062 234.989347 
L 543.839062 234.989347 
L 553.839062 234.989347 
" style="fill: none; stroke: #1f77b4; stroke-width: 1.5; stroke-linecap: square"/>
    </g>
    <g id="text_39">
     <!-- LQR -->
     <g transform="translate(561.839062 238.489347)scale(0.1 -0.1)">
      <use xlink:href="#DejaVuSans-4c"/>
      <use xlink:href="#DejaVuSans-51" x="55.712891"/>
      <use xlink:href="#DejaVuSans-52" x="134.423828"/>
     </g>
    </g>
    <g id="line2d_64">
     <path d="M 533.839062 249.667472 
L 543.839062 249.667472 
L 553.839062 249.667472 
" style="fill: none; stroke: #ff7f0e; stroke-width: 1.5; stroke-linecap: square"/>
    </g>
    <g id="text_40">
     <!-- GPC-LQR -->
     <g transform="translate(561.839062 253.167472)scale(0.1 -0.1)">
      <use xlink:href="#DejaVuSans-47"/>
      <use xlink:href="#DejaVuSans-50" x="77.490234"/>
      <use xlink:href="#DejaVuSans-43" x="137.792969"/>
      <use xlink:href="#DejaVuSans-2d" x="207.617188"/>
      <use xlink:href="#DejaVuSans-4c" x="243.701172"/>
      <use xlink:href="#DejaVuSans-51" x="299.414062"/>
      <use xlink:href="#DejaVuSans-52" x="378.125"/>
     </g>
    </g>
   </g>
  </g>
 </g>
 <defs>
  <clipPath id="p902356f140">
   <rect x="32.4" y="21.6" width="265.090909" height="166.909091"/>
  </clipPath>
  <clipPath id="p54cbefd0b0">
   <rect x="350.509091" y="21.6" width="265.090909" height="166.909091"/>
  </clipPath>
  <clipPath id="pcb7481c118">
   <rect x="32.4" y="221.890909" width="265.090909" height="166.909091"/>
  </clipPath>
  <clipPath id="p2f6598d98e">
   <rect x="350.509091" y="221.890909" width="265.090909" height="166.909091"/>
  </clipPath>
 </defs>
</svg>
